<mxfile host="app.diagrams.net" modified="2023-11-20T07:07:21.570Z" agent="Mozilla/5.0 (Windows NT 10.0; Win64; x64) AppleWebKit/537.36 (KHTML, like Gecko) Chrome/119.0.0.0 Safari/537.36" version="22.1.3" etag="N5ogsBeAnOr24BMvg71i" type="github">
  <diagram name="第 1 页" id="0coMpnpYLi1TvLjB-qea">
    <mxGraphModel>
      <root>
        <mxCell id="0" />
        <mxCell id="1" parent="0" />
      </root>
    </mxGraphModel>
  </diagram>
</mxfile>
